<?xml version="1.0" encoding="utf-8"?>
<!-- Generator: Adobe Illustrator 16.0.0, SVG Export Plug-In . SVG Version: 6.00 Build 0)  -->
<!DOCTYPE svg PUBLIC "-//W3C//DTD SVG 1.1//EN" "http://www.w3.org/Graphics/SVG/1.1/DTD/svg11.dtd">
<svg version="1.1" id="De" xmlns="http://www.w3.org/2000/svg" xmlns:xlink="http://www.w3.org/1999/xlink" x="0px" y="0px"
	 width="283.465px" height="283.465px" viewBox="0 0 283.465 283.465" enable-background="new 0 0 283.465 283.465"
	 xml:space="preserve">
<polygon id="de-black" fill="#010202" stroke="#29692E" points="26.79,171.496 30.282,176.814 26.984,184.592 28.838,184.592 
	35.6,192.996 36.828,199.145 39.904,201.816 39.386,210.854 39.507,210.816 44.825,214.925 44.825,218.404 49.746,222.514 
	54.459,220.874 59.382,220.874 63.067,222.298 68.189,220.659 74.938,223.745 80.288,223.745 85.814,227.428 79.451,233.979 
	76.381,242.6 76.381,246.896 72.493,250.59 69.62,260.418 70.031,268.624 74.938,271.675 77.604,277.205 77.453,277.257 
	82.116,278.656 87.245,275.771 94.208,278.253 96.255,274.762 95.638,271.283 101.385,269.229 103.433,274.762 106.911,275.771 
	109.773,273.125 113.673,273.324 121.467,279.061 124.316,280.986 125.784,280.962 129.073,279.311 134.163,277.42 138.059,281.717 
	145.23,283.57 147.07,281.316 146.464,277.42 154.039,276.389 161.84,277.609 165.936,280.307 170.85,279.061 175.361,280.507 
	180.252,279.475 189.287,273.525 193.786,272.92 200.352,274.762 206.718,272.92 213.057,276.602 215.917,274.561 215.109,269.229 
	208.143,265.738 208.143,262.059 215.729,252.43 222.279,249.191 225.561,243.533 230.082,243.533 229.781,237.887 230.764,232.732 
	230.813,232.544 219.409,219.372 213.887,215.682 204.121,209.002 198.577,205.9 197.023,201.693 197.441,194.787 191.479,185.535 
	183.995,181.023 183.682,176.814 186.148,174.962 188.873,177.219 193.585,179.486 203.628,170.26 208.545,169.833 214.077,163.496 
	220.227,163.281 223.291,158.579 232.729,158.378 236.823,159.398 241.525,156.523 241.525,151.415 250.348,153.462 
	254.051,150.993 258.123,153.04 259.219,151.318 260.77,148.842 260.378,133.721 256.977,129.302 253.206,127.23 248.079,115.548 
	250.348,110.638 247.902,104.703 247.902,100.398 243.793,95.061 244.816,89.321 236.005,79.889 236.005,76 243.986,71.906 
	244.816,62.466 241.789,49.711 236.635,49.997 233.193,46.97 228.469,47.626 223.302,43.531 224.387,38.141 221.146,33.208 
	215.339,34.288 208.229,27.197 203.3,26.334 201.361,23.322 198.79,24.607 192.553,25.25 186.742,29.346 184.587,27.197 
	187.536,24.217 188.495,24.974 190.637,22.691 196.547,20.343 189.148,19.585 186.667,20.877 186.01,23.783 180.329,26.668 
	180.037,29.244 169.615,30.864 165.645,36.327 164.688,40.399 158.777,40.94 156.948,37.815 151.809,37.303 149.249,38.479 
	142.066,36.327 147.105,32.888 150.535,33.431 154.29,28.929 154.177,24.103 151.921,22.825 147.41,26.365 145.909,28.389 
	138.739,23.239 136.583,20.24 133.899,21.854 132.4,24.846 128.013,28.074 126.293,23.322 121.788,22.025 120.283,18.803 
	123.074,16.005 126.106,9.548 120.49,8.916 115.002,3 109.993,3.869 106.911,2.446 96.463,-0.428 88.984,-0.061 89.319,1.179 
	88.877,5.897 92.754,8.475 95.771,8.69 95.343,12.786 101.567,18.584 96.412,20.524 91.688,20.524 91.877,25.471 96.822,23.322 
	96.822,29.976 102.002,33.208 97.498,36.655 97.498,40.745 101.36,43.095 108.24,43.531 117.164,52.863 128.884,57.74 
	116.558,55.334 107.579,45.483 101.567,47.842 97.044,45.483 92.539,46.334 89.084,51.923 90.167,56.657 90.395,64.82 
	92.972,70.205 86.728,63.101 87.164,56.657 83.068,53 80.49,54.08 80.49,58.161 83.068,63.101 80.288,66.119 75.543,60.518 
	75.543,54.08 69.297,49.568 65.658,51.281 52.965,54.722 51.884,60.318 54.472,65.264 60.691,66.34 61.996,71.708 61.453,71.527 
	61.303,72.737 59.665,74.811 59.28,77.99 57.011,82.939 56.911,88.502 53.224,91.577 47.29,88.914 44.825,94.446 45.651,98.123 
	52.608,97.917 55.493,100.581 53.842,104.074 53.029,110.222 49.337,112.893 52.411,118.212 48.315,120.481 41.126,118.83 
	33.552,120.678 30.08,126.417 26.393,130.915 28.068,139.182 26.21,148.643 23.829,154.872 24.54,155.088 22.695,159.186 
	26.984,168.02 "/>
<linearGradient id="de-red_1_" gradientUnits="userSpaceOnUse" x1="274.9639" y1="-35.2446" x2="36.8882" y2="-35.2446" gradientTransform="matrix(1 0 0 -1 -14.1953 146.0391)">
	<stop  offset="0.2266" style="stop-color:#C13620"/>
	<stop  offset="1" style="stop-color:#921724"/>
</linearGradient>
<path id="de-red" fill="url(#de-red_1_)" d="M26.79,171.496l3.492,5.318l-3.298,7.776h1.854l6.762,8.404l1.228,6.147l3.076,2.672
	l-0.518,9.037l0.121-0.037l5.318,4.108v3.479l4.921,4.109l4.713-1.641h4.923l3.685,1.424l5.122-1.639l6.749,3.086h5.35l5.526,3.683
	l-6.363,6.552l-3.07,8.621v4.297l-3.888,3.692l-2.873,9.828l0.411,8.206l4.907,3.051l2.666,5.53l-0.151,0.052l4.663,1.398
	l5.129-2.885l6.963,2.481l2.047-3.491l-0.617-3.479l5.747-2.055l2.048,5.532l3.478,1.011l2.862-2.646l3.9,0.199l7.794,5.736
	l2.849,1.926l1.468-0.024l3.289-1.651l5.09-1.891l3.896,4.297l7.171,1.854l1.84-2.254l-0.606-3.896l7.575-1.031l7.801,1.222
	l4.096,2.696l4.914-1.245l4.512,1.445l4.892-1.031l9.035-5.949l4.499-0.605l6.564,1.842l6.366-1.842l6.339,3.682l2.86-2.041
	l-0.808-5.332l-6.967-3.49v-3.68l7.586-9.629l6.551-3.238l3.281-5.658h4.521l-0.302-5.646l0.982-5.153l0.049-0.188l-11.402-13.172
	l-5.522-3.69l-9.766-6.68l-5.544-3.102l-1.555-4.207l0.418-6.906l-5.963-9.252l-7.482-4.512l-0.313-4.209l2.467-1.854l2.725,2.257
	l4.712,2.269l10.043-9.228l4.917-0.427l5.532-6.337l6.149-0.216l3.063-4.701l9.438-0.201l4.094,1.021l4.703-2.875v-5.108
	l8.822,2.047l3.702-2.47l4.072,2.048l1.096-1.722l1.552-2.478l-0.393-15.121l-3.4-4.419l-3.771-2.072l-5.127-11.682l2.27-4.91
	l-2.445-5.935v-4.305l-4.109-5.337l1.023-5.74l-8.813-9.432v-0.886c-60.284,16.744-120.567,33.28-180.852,10.965l-1.929,1.609
	l-5.934-2.663l-2.465,5.532l0.826,3.677l6.957-0.206l2.885,2.664l-1.651,3.493l-0.813,6.148l-3.692,2.671l3.074,5.319l-4.096,2.269
	l-7.189-1.651l-7.574,1.848l-3.472,5.739l-3.687,4.498l1.675,8.267l-1.858,9.459l-2.381,6.229l0.711,0.216l-1.845,4.098l4.289,8.834
	L26.79,171.496z"/>
<linearGradient id="de-yellow_1_" gradientUnits="userSpaceOnUse" x1="245.0049" y1="-86.6333" x2="41.1772" y2="-86.6333" gradientTransform="matrix(1 0 0 -1 -14.1953 146.0391)">
	<stop  offset="0.2539" style="stop-color:#F0CA37"/>
	<stop  offset="1" style="stop-color:#BB7E00"/>
</linearGradient>
<path id="de-yellow" fill="url(#de-yellow_1_)" d="M103.433,274.762l3.478,1.01l2.862-2.646l3.9,0.199l7.794,5.735l2.849,1.926
	l1.468-0.023l3.289-1.65l5.09-1.892l3.896,4.298l7.171,1.854l1.84-2.254l-0.606-3.896l7.575-1.031l7.801,1.221l4.096,2.697
	l4.914-1.246l4.512,1.447l4.892-1.033l9.035-5.949l4.499-0.604l6.564,1.843l6.366-1.843l6.339,3.683l2.86-2.041l-0.808-5.332
	l-6.967-3.49v-3.68l7.586-9.629l6.551-3.238l3.281-5.658h4.521l-0.302-5.646l0.982-5.154l0.049-0.188l-11.402-13.172l-5.522-3.689
	l-9.766-6.681l-5.544-3.103l-1.555-4.206l0.418-6.906l-4.617-7.164c-54.879,15.591-109.76,23.354-164.642-5.854l-1.197,2.824h1.854
	l6.762,8.403l1.228,6.147l3.076,2.672l-0.518,9.037l0.121-0.037l5.318,4.109v3.479l4.921,4.109l4.713-1.641h4.923l3.685,1.424
	l5.122-1.639l6.749,3.086h5.35l5.526,3.684l-6.363,6.551l-3.07,8.621v4.297l-3.888,3.692l-2.873,9.828l0.411,8.206l4.907,3.051
	l2.666,5.53l-0.151,0.052l4.663,1.399l5.129-2.886l6.963,2.481l2.047-3.491l-0.617-3.479l5.747-2.055L103.433,274.762z"/>
</svg>
