<?xml version="1.0" encoding="utf-8"?>
<!-- Generator: Adobe Illustrator 16.0.0, SVG Export Plug-In . SVG Version: 6.00 Build 0)  -->
<!DOCTYPE svg PUBLIC "-//W3C//DTD SVG 1.1//EN" "http://www.w3.org/Graphics/SVG/1.1/DTD/svg11.dtd">
<svg version="1.1" id="Ebene_1" xmlns="http://www.w3.org/2000/svg" xmlns:xlink="http://www.w3.org/1999/xlink" x="0px" y="0px"
	 width="283.465px" height="283.465px" viewBox="0 0 283.465 283.465" enable-background="new 0 0 283.465 283.465"
	 xml:space="preserve">
<linearGradient id="uk-blue_1_" gradientUnits="userSpaceOnUse" x1="242.083" y1="141.8521" x2="41.3804" y2="141.8522">
	<stop  offset="0.4081" style="stop-color:#1A4384"/>
	<stop  offset="1" style="stop-color:#162148"/>
</linearGradient>
<path id="uk-blue" fill="url(#uk-blue_1_)" d="M89.747,70.547l9.407-9.509L97.646,63.9l1.422,0.885l-2.822,0.998l-2.284,5.466
	l0.267,1.331l-2.903,5.546l1.234,0.711l-2.472,6.614l0.618,4.276l-1.751,2.521l1.308,2.128l1.676-0.809l-2.984,4.749l-0.535,6.61
	l-2.193,2.146l0.174,1.6l4.925-0.016l-0.701-3.397l2.108-4.912l-0.172-3.036l2.543-3.133l-1.926-8.206l1.833-0.011l5.807-6.982
	l-4.396,6.616l-0.526,4.828l1.667,1.243l0.351-2.848l2.906-2.431l1.317,4.456l2.372-5.366l-0.529-3.75l1.94-0.988l-0.783,4.825
	l4.91,3.728l-4.223-1.14l-1.502,6.171l0.968,4.559l2.554,0.601l1.504,4.015l-3.78,3.851l-3.82,10.009l0.887,4.475l-3.359-2.126
	l0.184,4.827l4.575,6.427l-1.4-5.906l3.172-0.911l8.105,5.879l0.176-4.648l-3.358-2.679l2.122-0.544l6.528,4.087l4.581-0.736v-1.956
	l4.234,0.161l1.244-3.94l11.443,0.484l-7.578,2.004l-4.584,13.084l5.632,10.178l2.832-1.623v5.377l3.698-4.492l4.593,0.703
	l-1.588,5.547l1.411,0.898l-4.561,3.568l1.403,6.252l-2.464,4.742l2.815,3.646l3.333,2.936l2.738,0.256l-1.853,1.35l-3.08,0.195
	l-2.636-3.736l-2.552,0.979l2.113,3.654l2.285,1.414l-3.604-0.783l-2.907-2.939l-7.374,2.357l-3.357-0.514l-7.641,3.768L114,184.617
	l-5.537,3.52l-2.367,3.395l3.51-0.637l1.759,0.617l0.529-2.06l7.825-2.08l-0.694,4.108l2.722,2.854l-2.905,2.146l1.668,3.117
	l1.843,0.436l-5.095,9.76l-3.687,1.255l-3.698,2.789l-1.841,0.104l-4.747,2.955l-3.431,0.015l-5.54,3.595l4.385,0.602l0.269,3.223
	l-3.16,1.525l5.633,0.953l-1.421,1.342l2.205,1.246l3.171-0.904l3.688-2.251l5.978-1.982l0.526,2.763l4.75,1.148l-3.86,1.068
	l-0.445,2.238l6.51,0.164v-1.26l3.243-0.902l3.337,3.832l2.985,3.547l7.478-0.108l1.76-2.955l3.509-1.528l4.842-1.809l1.844-2.693
	l4.051-1.89l-5.543,6.452l-5.54,5.294l-0.269,6.254l-3.768-0.167l-2.997,1.078l-3.428-1.864l-9.672-1.034l-6.848,1.82l0.084,3.479
	l-2.906,2.78l-3.767,0.026l-0.62,7.943l-4.045,3.668l-1.052,2.063l-4.478,0.825l-1.153,4.544l-1.938,0.026l-1.048,2.41l-5.447,3.949
	l-2.462-0.893l-3.777,2.705v3.477l4.129,0.244l0.175-3.115l5.014,1.319l2.06,3.667l2.451-2.344l-1.052-1.771l2.297-3.063l1.104,1.43
	l2.799-2.688l1.843-0.023l1.411-3.387l4.314,1.137l3.348-1.53l2.72,0.437l1.934-1.074l1.935,2.578l2.288-0.185l3.164,2.662
	l3.683-0.19l-0.709-2.404l2.906-1.354l0.801-2.232l-0.801-4.02l2.55-2.512l2.105-0.277l0.884-1.617l8.256-1.896l4.318,0.339
	l5.002,3.464l1.853-0.724l5.44,0.247l2.914,1.056l1.399-3.487l5.015-2.516l3.432,0.957l4.838-3.225l3.418,0.791l1.762-0.277
	l2.379-1.788l0.702,1.777l2.901,1.673l3.328-2.232l7.57-0.125l4.736-1.004l4.57,1.496l2.289,0.438l3.428-2.776l3.779-0.733
	l3.336-3.148l2.297-0.172l2.379,0.533l-0.535-2.592l5.355-3.685l3.344-0.738l0.271-3.389l-0.958-2.396l1.05-2.789l-6.078,0.207
	l-4.306,1.621l-2.501,0.449l-4.025-1.447l-1.479-0.393l1.396-1.301l1.238-0.178l0.383-0.795l-3.668-0.926l-3.144,1.17l4.407-3.082
	l2.936,0.293l3.574-1.719l-1.043-3.027h-3.532l2.64-2.326l1.936-1.893l2.123,1.783l3.24-2.338l1.33-2.045l-1.586-0.359l1.052-1.607
	l-3.771-0.435l1.482-2.504l2.372,0.616l0.708,1.793l2.728-3.59l2.636-1.086l0.436-6.715l2.46-6.281l-1.937-2.497l-1.06-5.726
	l-7.755-6.053l-10.764-0.504l-6.69,0.203l-0.524,5.025l-1.773,2.867l-3.521-3.923l-4.233-1.054l6.713-6.655v-4.118l-5.304-8.574
	l-2.107-0.36l-4.646-2.699l-1.928-3.291l-2.378,0.46l-1.663,0.532l-2.816-0.972h-1.68l3.168-0.803l2.012,0.524l3.441-0.728
	l2.111,0.967l1.846,1.873l2.367-0.442l2.296,0.511l-6.241-7.75l-2.904-3.728l1.845-2.957l1.668-0.626l-3.067-1.684l-1.328-2.322
	l-1.308-0.17l-3.668-6.709l-5.458-2.858l-7.763-1.751l-0.351-3.04l-1.772-1.069l-2.472-8.401l-2.81-4.636l-1.948-10.748
	l-2.283-3.571l-2.115,0.02l-6.537-9.656l-3.86-0.873l-2.995-2.493l-4.947-1.951l-1.936,1.792l-3.881,2.528l-5.457-1.762
	l-2.609,0.346l-4.397-1.405l-1.307-2.41l2.639,1.339l5.273,0.422l4.387-1.45l1.325-3.48l4.482,0.156l4.036-3.058l-4.12-1.943
	l-0.268-2.403l-1.668-1.334l-5.726,3.058l-0.957-1.159l4.388-3.234l5.284,0.341l3.067-2.704l0.534-2.409l2.113-1.344l3.069-5.993
	l1.944-2.775l-0.266-1.95l2.19-4.033l-0.793-1.426l1.927-5.56l3.696-3.131v-3.565l-5.448-4.971l-1.145,0.883l-9.318,0.314
	l-5.717-1.055l-1.664,1.175h-2.805l-3.519-1.232l-2.471,0.105l-0.351,1.255l-3.5,1.081l-3.789,2.071l-1.497-0.096l-2.55,2.07
	l-0.795-0.791l3.427-3.947l3.605-5.825l-2.625,1.446l-3.256-1.241l1.939-1.256l0.7-2.688l9.04-6.823l2.647-4.458l3.079-1.097
	l1.485-4.021l-1.569-1.782l1.751-2.854l-0.182-1.793l-4.564,0.013l-1.844,1.987l-2.903-0.887l-4.388,1.979l-4.036-0.433
	l-3.439,1.447L114.273,5l-2.015,1.875l0.43-2.056l-1.855-0.808l-3.767,3.328l1.141-2.942l-5.178-2.4l-0.886,3.228l-1.75,1.339
	l0.516,2.95l-1.053,0.088l0.165,3.666l-3.769,0.812l1.852,3.115l-1.608,3.154l-1.834,0.09l4.493,3.997l1.584,2.854l-4.573-2.302
	l-1.679,1.431l-3.335-2.213l-0.173,1.606l0.883,2.142l-1.063,1.605l-1.758-3.47l-1.588,3.655l1.764,1.968l-1.414,1.88l2.73,3.122
	l2.647,0.07l-3.088,1.17l-3.164-1.771l0.713,5.09l-0.106,1.7l5.809-0.923l-3.788,1.894l-0.415,1.051l1.235,0.757l3.667-1.358
	l-0.865,0.938l1.484,1.86l-2.722-1.103l-1.077,0.729l-0.793,2.481l1.493,1.067l-2.194,0.353l-1.4,2.151l2.534,0.865l0.578,1.952
	l-4.165-1.582l-0.781,2.76l1.668,1.149l-0.969,1.819l-1.965,1.423l-4.066,0.1l-1.752,1.842l1.535,0.964l3.45-0.229l2.326,0.692
	l-0.534,1.029h-2.657l3.583,3.389l0.885,1.327l-2.914-0.436l-3.688-4.177l-4.211,2.965l5.975,2.925l-3.336,1.8l0.875,1.429
	l-3.957,2.867l8.529-1.909l0.338,1.328l4.057-3.042L89.747,70.547z M68.649,23.943l-1.936,0.988l-0.886,1.884l-1.583,0.891
	l2.902,2.224l5.107-4.495L68.649,23.943z M79.811,89.334l-6.588,2.71l0.08,5.878l4.222-2.684L76.991,99.7l4.756-2.875l1.134-2.945
	l2.822-3.773l3.513-7.775l-7.898,7.356L79.811,89.334z M106.793,144.665l-1.76,5.993l3.883-0.648l5.526-5.552l-0.873-2.414
	l0.783-3.929L106.793,144.665z M94.055,98.823l1.133,6.685l4.398,1.781l1.319-4.566l-3.165-6.509L94.055,98.823z M54.461,144.371
	l1.336-6.368l2.679-2.013l6.714,3.34l4.357,8.729l3.357,0.68l4.995,3.324l0.925,0.133l-0.351-3.403l2.113,0.53l3.532-2.883
	l0.35-3.225l5.468,0.701l0.772-3.841l-3.431-0.706l1.321-3.574l-1.321-2.664l2.544-0.37l2.646,7.936l-1.41-10.169l-6.239-0.328
	l3.428-2.517l-6.767-9.609l-0.442-4.29l-3.429-1.857l-7.025-0.702l-4.405,2.874l-2.637,0.299l-1.401,1.612l-4.365,0.854
	l-2.255,2.352l-3.079,1.676l-1.338,4.03l-4.697,0.669l-5.025,10.398l9.722,9.044L54.461,144.371z M73.737,40.692l1.679,1.262
	l-0.628,1.42l3.091,5.527l5.353-0.562l0.36,4.465l1.846-0.275l1.318-4.021l3.174-1.806l-1.68-1.243l-2.646,0.551l-4.655-2.486
	l0.533-7.759l-2.371-4.013l-2.285,1.067l0.526,5.189l-4.924-3.376l0.26,4.02l-1.586-1.065l-1.752,1.706l4.224,3.099L73.737,40.692z
	 M64.51,21.089l2.119,1.794l3.954-0.655l4.038,1.048l2.904-4.106l-1.401-1.061l1.321-3.402l3.953-3.678l-0.709-5.977l-10.371,7.363
	l1.131,3.479l-4.818-2.208l-2.555,3.221l2.453,2.575L64.51,21.089z M63.202,35.029l0.257-2.579l-5.704-0.614L55.98,32.82
	l3.166,3.209L58,37.728v1.419l0.186,1.704l0.177,2.673l-1.237,2.877l0.875,3.018l2.74,0.617l-0.885-3.84l1.142-2.146l-0.443-2.751
	l0.351-0.992l1.234-3.23L63.202,35.029z"/>
<linearGradient id="uk-white_1_" gradientUnits="userSpaceOnUse" x1="242.0859" y1="131.8813" x2="56.6533" y2="131.8813">
	<stop  offset="0.3789" style="stop-color:#FFFFFF"/>
	<stop  offset="0.8711" style="stop-color:#C6C7C8"/>
</linearGradient>
<path id="uk-white" fill="url(#uk-white_1_)" d="M239.087,189.141l-7.755-6.053l-10.764-0.504l-6.69,0.203l-0.524,5.025
	l-1.772,2.865l-3.522-3.922l-4.231-1.054l6.713-6.655v-4.119l-5.304-8.572l-2.107-0.36l-4.646-2.699l-1.928-3.291l-2.377,0.46
	l-1.664,0.532l-2.814-0.972h-1.682l3.168-0.803l2.014,0.523l3.439-0.729l2.111,0.967l1.846,1.873l2.367-0.441l2.296,0.512
	l-6.241-7.75l-2.903-3.729l1.845-2.957l1.668-0.626l-3.068-1.685l-1.326-2.32l-1.309-0.17l-3.668-6.71l-5.458-2.858l-7.763-1.751
	l-0.352-3.039l-1.771-1.07l-2.473-8.401l-2.81-4.636l-1.948-10.748l-2.283-3.572l-2.114,0.02l-6.537-9.655l-3.86-0.874l-2.994-2.493
	l-4.947-1.951l-1.937,1.792l-3.881,2.528l-3.158-1.02c0,12.041,0,23.082,0,31.789l4.915,0.208l-4.915,1.3c0,7.771,0,13.49,0,16.086
	c-2.355-1.047-4.65-2.133-6.914-3.248l-0.333,0.95l5.632,10.178l2.832-1.623v5.375l3.698-4.49l4.591,0.703l-1.588,5.547l1.412,0.897
	l-4.561,3.568l1.402,6.252l-2.464,4.741l2.815,3.646l3.333,2.936l2.738,0.257l-1.854,1.349l-3.08,0.196l-2.636-3.737l-2.552,0.98
	l2.112,3.652l2.285,1.414l-3.604-0.783l-2.907-2.938l-7.374,2.356l-3.357-0.514l-7.641,3.768L114,184.617l-5.537,3.52l-2.367,3.396
	l3.511-0.639l1.759,0.617l0.528-2.06l7.825-2.08l-0.693,4.108l2.722,2.854l-2.905,2.146l1.668,3.117l1.843,0.436l-5.095,9.76
	l-3.687,1.255l-3.698,2.789l-1.841,0.104l-4.747,2.953l-3.432,0.017l-5.539,3.595l4.385,0.602l0.269,3.224l-3.16,1.524l5.634,0.953
	l-1.422,1.344l2.205,1.244l3.171-0.903l3.688-2.251l5.978-1.982l0.375,1.967c6.843-6.201,13.687-12.718,20.53-19.373
	c0,6.383,0,17.764,0,29.949l3.619-0.053l1.76-2.955l3.51-1.529l4.842-1.808l1.844-2.692l4.051-1.891l-5.543,6.452l-5.54,5.294
	l-0.269,6.254l-3.769-0.167l-2.997,1.078l-1.508-0.82c0,6.265,0,12.522,0,18.237l1.42-0.188l0.885-1.615l8.256-1.897l4.318,0.339
	l5.002,3.463l1.853-0.723l5.44,0.247l2.912,1.056l1.4-3.486l5.016-2.517l3.432,0.957l4.838-3.224l2.517,0.582
	c0-18.73,0-51.038,0-63.326c15.709,5.662,31.417,12.047,47.124,21.372l0.365-0.616l2.372,0.616l0.708,1.793l2.729-3.589l2.635-1.086
	l0.437-6.717l2.46-6.281l-1.936-2.496L239.087,189.141z M102.635,121.833l-3.358-2.126l0.184,4.828l4.575,6.427l-1.4-5.906
	l3.172-0.911l8.105,5.879l0.15-3.974c-4.121-2.578-8.188-5.373-12.266-8.447L102.635,121.833z M77.406,96.241L76.991,99.7
	l2.45-1.481C78.764,97.56,78.092,96.919,77.406,96.241z M90.777,108.659c-1.074-0.932-2.156-1.889-3.242-2.866l-1.309,1.28
	l0.175,1.601L90.777,108.659z M135.967,5.697c0,1.748,0,3.568,0,5.453l1.418-3.842L135.967,5.697z M106.793,144.665l-1.76,5.993
	l3.883-0.648l5.526-5.552l-0.873-2.414l0.783-3.929L106.793,144.665z M161.913,39.974v-3.565l-5.448-4.972l-1.145,0.884
	l-9.318,0.314l-5.717-1.055l-1.664,1.175h-2.654c0,12.916,0,26.987,0,40.546l3.179-2.342l5.284,0.341l3.067-2.705l0.534-2.409
	l2.111-1.344l3.07-5.994l1.944-2.775l-0.267-1.95l2.19-4.033l-0.793-1.426l1.927-5.56L161.913,39.974z M76.84,95.675
	c-1.195-1.186-2.396-2.386-3.617-3.631l0.08,5.878L76.84,95.675z M84.298,144.779l0.17-1.564l5.468,0.701l0.772-3.841l-3.431-0.706
	l1.32-3.574l-1.32-2.664l2.544-0.37l2.646,7.937l-1.41-10.169l-6.238-0.328l3.428-2.517l-6.768-9.609l-0.441-4.29l-3.429-1.857
	l-7.025-0.702l-4.405,2.874l-2.637,0.299l-1.401,1.611l-4.364,0.854l-1.123,1.171C65.867,128.63,75.083,137.397,84.298,144.779z
	 M137.385,0.879l-1.418,0.004c0,1.406,0,2.872,0,4.398l1.601-2.609L137.385,0.879z M138.979,80.875l4.481,0.155l4.036-3.058
	l-4.12-1.943l-0.269-2.403l-1.667-1.334l-5.475,2.923c0,3.276,0,6.515,0,9.697l1.688-0.558L138.979,80.875z"/>
<linearGradient id="uk-red_1_" gradientUnits="userSpaceOnUse" x1="242.083" y1="147.1602" x2="60.6333" y2="147.1601">
	<stop  offset="0.3008" style="stop-color:#C13620"/>
	<stop  offset="1" style="stop-color:#921724"/>
</linearGradient>
<path id="uk-red" fill="url(#uk-red_1_)" d="M205.234,166.355l-2.107-0.36l-4.646-2.699l-1.928-3.291l-2.378,0.46l-1.663,0.532
	l-2.814-0.972h-1.682l3.168-0.803l2.014,0.523l3.439-0.729l2.111,0.967l1.846,1.873l2.367-0.441l2.296,0.512l-6.241-7.75
	l-2.904-3.729l1.846-2.957l1.668-0.626l-3.068-1.685l-1.326-2.32l-1.309-0.17l-0.07-0.129c-6.815,1.451-13.634,3.205-20.449,5.088
	c0-5.412,0-14.544,0-25.516l-0.965-3.272l-2.809-4.636l-1.947-10.748l-2.285-3.572l-2.113,0.021l-6.537-9.655l-3.859-0.874
	l-2.996-2.493l-4.076-1.608c0,28.081,0,58.063,0,70.197c-1.596,0.438-3.189,0.87-4.784,1.294l1.112,4.959l-2.464,4.742l2.815,3.646
	l3.333,2.936l2.738,0.256l-1.854,1.35l-3.08,0.195l-2.636-3.736l-2.552,0.979l2.112,3.652l2.285,1.416l-3.604-0.783l-2.907-2.939
	l-7.374,2.357l-3.357-0.514l-7.641,3.768L114,184.617l-5.537,3.52l-2.367,3.396l3.511-0.639l1.759,0.617l0.528-2.06l7.825-2.08
	l-0.498,2.954c8.863-1.832,17.728-4.271,26.591-6.928c0,11.813,0,30.422,0,48.508l3.886-1.449l1.844-2.693l4.051-1.89l-5.543,6.452
	l-4.237,4.049c0,7.854,0,15.484,0,22.292l0.717-0.165l4.318,0.339l5.002,3.464l1.853-0.724l5.44,0.247l2.912,1.056l1.4-3.487
	l5.015-2.516l0.933,0.26c0-22.871,0-62.49,0-82.229c10.727-3.212,21.453-6.111,32.181-7.996L205.234,166.355z M113.666,145.236
	c-1.516-0.836-3.03-1.7-4.545-2.59l-2.328,2.019l-1.76,5.993l3.883-0.648L113.666,145.236z M90.09,143.148l0.618-3.075l-3.431-0.706
	l1.32-3.574l-1.32-2.664l2.544-0.37l2.646,7.937l-1.385-9.992c-0.086-0.064-0.172-0.126-0.258-0.19l-6.006-0.315l2.85-2.093
	c-6.09-4.747-12.18-10.075-18.271-16.108l-3.22,2.101l-2.637,0.299l-1.401,1.611l-1.505,0.294
	C70.453,127.075,80.271,135.841,90.09,143.148z M135.968,196.296c-4.097,1.166-8.194,2.25-12.29,3.222
	c-0.676,0.623-1.351,1.24-2.025,1.857l-4.395,8.418l-3.687,1.255l-3.698,2.789l-1.841,0.104l-2.283,1.42
	c-2.35,1.972-4.699,3.89-7.048,5.756l0.267,3.213l-3.16,1.525l5.634,0.951l-1.422,1.344l2.205,1.246l3.171-0.904l0.751-0.458
	c9.94-8.464,19.881-17.776,29.821-27.378C135.968,199.203,135.968,197.749,135.968,196.296z M184.795,133.124l-1.538-0.347
	c0,0.87,0,1.739,0,2.608c1.349-0.329,2.696-0.637,4.046-0.948L184.795,133.124z M242.083,197.363l-1.937-2.497l-0.931-5.025
	c-3.539-2.456-7.077-4.741-10.616-6.881l-8.031-0.376l-6.69,0.203l-0.39,3.723c8.908,4.379,17.816,9.454,26.727,15.627
	L242.083,197.363z M210.538,179.048v-3.481c-4.993,0.764-9.981,1.761-14.974,2.943c3.606,1.471,7.217,3.016,10.824,4.65
	L210.538,179.048z M145.813,70.08l1.686-1.485l0.534-2.409l2.112-1.344l3.069-5.994l1.944-2.775l-0.266-1.95l2.189-4.033
	l-0.793-1.426l1.927-5.56l3.696-3.131v-3.565l-5.448-4.972l-1.146,0.884l-9.317,0.314l-0.19-0.035
	C145.813,40.431,145.813,54.284,145.813,70.08z M110.57,171.417c0,0.002-1.225,3.681-1.14,3.858l6.332,3.188l5.446-4.314
	l-3.953,0.476l-1.854-3.845L110.57,171.417z"/>
</svg>
